<svg width="25" height="24" viewBox="0 0 25 24" fill="none" xmlns="http://www.w3.org/2000/svg">
<path fill-rule="evenodd" clip-rule="evenodd" d="M12.2632 0C5.49133 0 0 5.50824 0 12.3038C0 17.7398 3.51377 22.3517 8.38634 23.9787C8.99917 24.0926 9.22419 23.7117 9.22419 23.3867C9.22419 23.0936 9.21279 22.1242 9.20756 21.0961C5.79596 21.8404 5.07606 19.6444 5.07606 19.6444C4.51821 18.2224 3.71444 17.8441 3.71444 17.8441C2.60178 17.0804 3.79831 17.0962 3.79831 17.0962C5.02972 17.1829 5.67813 18.3642 5.67813 18.3642C6.7719 20.245 8.54695 19.7012 9.24676 19.3868C9.35705 18.5918 9.67463 18.0488 10.0254 17.7416C7.30149 17.4307 4.43819 16.3755 4.43819 11.661C4.43819 10.3179 4.91724 9.22031 5.70173 8.35867C5.57439 8.04853 5.15464 6.79715 5.82071 5.10246C5.82071 5.10246 6.85053 4.77193 9.19374 6.36382C10.172 6.09122 11.221 5.95446 12.2632 5.9496C13.3054 5.95422 14.3553 6.09116 15.3353 6.36382C17.6759 4.77193 18.7043 5.10246 18.7043 5.10246C19.3718 6.79715 18.9521 8.04853 18.8247 8.35867C19.6111 9.22031 20.0866 10.3179 20.0866 11.661C20.0866 16.3869 17.2178 17.4272 14.487 17.7318C14.927 18.1136 15.3189 18.8624 15.3189 20.0103C15.3189 21.6566 15.3049 22.9815 15.3049 23.3867C15.3049 23.7144 15.5254 24.098 16.147 23.9772C21.0171 22.3485 24.5264 17.7381 24.5264 12.3038C24.5264 5.50818 19.0359 0 12.2632 0" fill="white"/>
<path d="M4.64478 17.6656C4.61772 17.7268 4.52188 17.7452 4.43461 17.703C4.34539 17.6629 4.29571 17.5796 4.32449 17.5182C4.35097 17.4554 4.44676 17.4379 4.53575 17.4799C4.62469 17.5201 4.6754 17.6042 4.64478 17.6656V17.6656ZM5.14156 18.2214C5.08307 18.2758 4.96852 18.2505 4.89115 18.1646C4.81074 18.0788 4.79588 17.9639 4.85523 17.9089C4.91556 17.8545 5.02643 17.88 5.10662 17.9658C5.18703 18.0526 5.20269 18.1665 5.14156 18.2214ZM5.62504 18.93C5.54992 18.9825 5.42684 18.9334 5.35086 18.8241C5.27574 18.7144 5.27574 18.5832 5.35259 18.5307C5.42857 18.4781 5.5498 18.5255 5.62677 18.6339C5.70171 18.7452 5.70171 18.8764 5.62504 18.93ZM6.28737 19.6147C6.22019 19.689 6.07703 19.6691 5.97221 19.5676C5.86502 19.4684 5.8352 19.3276 5.90238 19.2532C5.9706 19.1787 6.11456 19.1996 6.22014 19.3002C6.32663 19.3993 6.35887 19.5411 6.28737 19.6147ZM7.20126 20.0121C7.17133 20.1086 7.03375 20.1521 6.89479 20.1112C6.75606 20.069 6.66534 19.9564 6.69331 19.859C6.72221 19.7618 6.86071 19.7163 7.00059 19.7601C7.13909 19.8021 7.2301 19.9142 7.20126 20.0122V20.0121ZM8.20489 20.0858C8.20834 20.1873 8.09057 20.2715 7.94476 20.2732C7.79814 20.2767 7.67939 20.1944 7.67772 20.0945C7.67772 19.9921 7.79308 19.909 7.93946 19.9063C8.08527 19.9034 8.20489 19.9852 8.20489 20.0858ZM9.13875 19.9264C9.15619 20.0252 9.05488 20.1269 8.91011 20.154C8.76775 20.1803 8.63593 20.1189 8.61785 20.021C8.60018 19.9195 8.70316 19.8178 8.84552 19.7916C8.99052 19.7663 9.12027 19.8258 9.13875 19.9264Z" fill="white"/>
</svg>
