<svg width="800" height="140" viewBox="0 0 800 140" fill="none" xmlns="http://www.w3.org/2000/svg">
<path d="M51.7898 139.832C81.8278 139.832 104.874 124.554 104.874 97.3647C104.874 73.0236 85.712 62.9246 71.2109 58.0045L54.3792 51.7898C45.316 48.9413 42.7265 44.7981 42.7265 40.396C42.7265 35.7349 46.6108 31.0739 54.3792 31.0739C59.8172 31.0739 66.5498 33.4044 69.9162 43.7623L101.249 35.9939C96.5879 14.2422 78.2025 0 52.8256 0C26.4128 0 3.88423 14.7601 3.88423 39.8781C3.88423 56.7098 13.4653 71.2109 35.7349 79.2383L53.8613 85.971C62.6656 88.8195 65.2551 92.9626 65.2551 97.3647C65.2551 104.874 58.5224 108.5 51.2719 108.5C38.5834 108.5 33.9223 99.4363 31.8507 92.9626L0 101.508C4.14318 127.144 24.6001 139.832 51.7898 139.832Z" fill="white"/>
<path d="M184.976 0C150.277 0 116.355 24.6001 116.355 70.1751C116.355 114.455 150.018 139.832 187.307 139.832C211.907 139.832 231.069 129.733 242.204 115.75L224.078 96.8469C214.238 104.356 203.621 107.205 191.709 107.205C173.842 107.205 160.376 99.9542 154.938 85.4531L250.749 85.4531C259.295 23.8233 219.158 0 184.976 0ZM185.494 33.6634C198.96 33.6634 212.684 41.1729 215.532 56.7098L154.162 56.7098C158.564 40.655 172.029 33.6634 185.494 33.6634Z" fill="white"/>
<path d="M350.02 0C330.858 0 317.651 8.28637 310.142 19.6801V2.58948L270.005 2.58948V137.243H310.142V64.9962C310.142 48.1645 318.687 35.7349 335.001 35.7349C351.574 35.7349 360.119 48.1645 360.119 64.9962V137.243H400.256V58.0045C400.256 16.8317 377.209 0 350.02 0Z" fill="white"/>
<path d="M424.514 137.243L464.651 137.243V2.58948L424.514 2.58948V137.243Z" fill="white"/>
<path d="M579.113 2.58948V74.8362C579.113 91.6679 570.567 104.097 554.254 104.097C537.681 104.097 529.135 91.6679 529.135 74.8362V2.58948L488.998 2.58948V81.8278C488.998 123.001 512.045 139.832 539.234 139.832C558.397 139.832 571.603 131.546 579.113 120.152V137.243L619.25 137.243V2.58948L579.113 2.58948Z" fill="white"/>
<path d="M687.529 139.832C717.567 139.832 740.614 124.554 740.614 97.3647C740.614 73.0236 721.451 62.9246 706.95 58.0045L690.119 51.7898C681.055 48.9413 678.466 44.7981 678.466 40.396C678.466 35.7349 682.35 31.0739 690.119 31.0739C695.557 31.0739 702.289 33.4044 705.656 43.7623L736.988 35.9939C732.327 14.2422 713.942 0 688.565 0C662.152 0 639.624 14.7601 639.624 39.8781C639.624 56.7098 649.205 71.2109 671.474 79.2383L689.601 85.971C698.405 88.8195 700.995 92.9626 700.995 97.3647C700.995 104.874 694.262 108.5 687.011 108.5C674.323 108.5 669.662 99.4363 667.59 92.9626L635.739 101.508C639.883 127.144 660.34 139.832 687.529 139.832Z" fill="white"/>
<path d="M777.212 139.832C789.383 139.832 800 130.769 800 117.045C800 103.321 789.383 94.2574 777.212 94.2574C765.042 94.2574 754.425 103.321 754.425 117.045C754.425 130.769 765.042 139.832 777.212 139.832Z" fill="white"/>
</svg>
